<?xml version="1.0" encoding="UTF-8"?>
<!DOCTYPE svg PUBLIC "-//W3C//DTD SVG 1.1//EN" "http://www.w3.org/Graphics/SVG/1.1/DTD/svg11.dtd">
<!-- Creator: CorelDRAW X6 -->
<svg xmlns="http://www.w3.org/2000/svg" xml:space="preserve" width="4in" height="4in" version="1.1" style="shape-rendering:geometricPrecision; text-rendering:geometricPrecision; image-rendering:optimizeQuality; fill-rule:evenodd; clip-rule:evenodd"
viewBox="0 0 4000 4000"
 xmlns:xlink="http://www.w3.org/1999/xlink">
 <defs>
  <style type="text/css">
   <![CDATA[
    .fil3 {fill:#29404C;fill-rule:nonzero}
    .fil2 {fill:#DAB044;fill-rule:nonzero}
    .fil1 {fill:#F6A6AB;fill-rule:nonzero}
    .fil0 {fill:#FAFCF5;fill-rule:nonzero}
   ]]>
  </style>
 </defs>
 <g id="Layer_x0020_1">
  <metadata id="CorelCorpID_0Corel-Layer"/>
  <polygon class="fil0" points="0,4000 4000,4000 4000,0 0,0 "/>
  <path class="fil1" d="M2243 1740l39 -56c6,-8 0,-20 -10,-21l-68 -6c-10,-1 -18,10 -13,19l29 61c4,9 17,11 23,2z"/>
  <path class="fil1" d="M2857 1864l-57 -37c-9,-6 -20,0 -21,10l-4 68c-1,10 10,17 19,13l61 -31c9,-5 10,-18 1,-23z"/>
  <path class="fil1" d="M1805 1178l56 38c9,6 20,0 21,-10l5 -68c1,-10 -10,-18 -19,-13l-61 29c-9,4 -10,17 -2,23z"/>
  <path class="fil1" d="M3789 3739l-31 -60c-5,-9 -18,-10 -23,-1l-37 57c-6,9 0,20 11,21l68 3c10,1 17,-10 13,-20z"/>
  <path class="fil1" d="M3731 1060l8 -67c1,-10 -9,-18 -19,-14l-63 26c-10,4 -11,17 -3,23l54 41c8,6 20,1 21,-9z"/>
  <path class="fil1" d="M2808 1360l-1 -68c0,-10 -12,-17 -20,-11l-58 35c-9,5 -9,18 0,23l59 33c9,5 20,-2 20,-12z"/>
  <path class="fil1" d="M3221 3595l-43 53c-7,8 -2,20 8,22l67 11c10,2 18,-8 15,-18l-24 -63c-4,-10 -16,-12 -23,-4z"/>
  <path class="fil1" d="M2387 326l50 -46c8,-7 5,-20 -5,-23l-65 -20c-10,-3 -19,6 -17,16l15 66c2,10 15,14 22,7z"/>
  <path class="fil1" d="M3164 2589l-63 -26c-10,-4 -20,4 -18,14l9 67c1,10 13,15 22,9l54 -41c8,-6 7,-19 -3,-23z"/>
  <path class="fil1" d="M973 2726l7 67c1,10 13,16 21,9l55 -40c8,-6 7,-19 -2,-23l-62 -27c-9,-4 -20,3 -19,14z"/>
  <path class="fil1" d="M1754 2275l-35 -58c-5,-9 -18,-8 -23,1l-32 60c-5,9 2,20 12,20l68 -2c10,0 17,-12 11,-20z"/>
  <path class="fil1" d="M3161 242l32 -60c5,-9 -2,-20 -12,-20l-68 2c-10,0 -16,12 -11,21l36 58c5,9 18,8 23,-1z"/>
  <path class="fil1" d="M326 531l-43 -52c-7,-8 -19,-6 -23,4l-24 64c-4,10 5,20 15,18l67 -11c10,-2 15,-14 8,-22z"/>
  <path class="fil1" d="M2327 950l42 54c6,8 19,6 23,-3l26 -63c4,-10 -4,-20 -14,-18l-67 9c-10,1 -15,13 -9,22z"/>
  <path class="fil1" d="M1119 344l18 65c3,10 15,13 23,6l48 -48c7,-7 4,-20 -6,-22l-66 -17c-10,-3 -19,7 -16,17z"/>
  <path class="fil2" d="M1637 1658l-68 0c-10,0 -17,11 -12,20l34 59c5,9 18,9 23,0l34 -59c5,-9 -1,-20 -12,-20z"/>
  <path class="fil2" d="M2305 2240l-46 50c-7,8 -3,20 7,22l66 15c10,2 19,-7 16,-17l-20 -65c-3,-10 -16,-13 -23,-5z"/>
  <path class="fil2" d="M224 3523l-68 -5c-10,-1 -18,10 -13,19l29 61c4,9 17,10 23,2l38 -56c6,-9 0,-20 -10,-21z"/>
  <path class="fil2" d="M1557 3610l49 47c7,7 20,4 22,-6l16 -66c3,-10 -7,-19 -17,-16l-65 19c-10,3 -13,15 -6,23z"/>
  <path class="fil2" d="M1503 2847l-3 68c0,10 11,17 20,12l60 -31c9,-5 10,-18 1,-23l-57 -36c-9,-6 -20,0 -21,11z"/>
  <path class="fil2" d="M918 1427l-56 -38c-9,-6 -20,0 -21,10l-5 68c-1,10 10,18 19,13l61 -30c9,-5 10,-17 2,-23z"/>
  <path class="fil2" d="M2719 2826l-67 -10c-10,-2 -18,9 -15,18l25 63c4,10 17,12 23,3l42 -53c6,-8 2,-20 -9,-22z"/>
  <path class="fil2" d="M515 3692l-4 68c-1,10 10,18 19,13l61 -30c9,-5 10,-18 1,-23l-57 -38c-9,-6 -20,0 -21,10z"/>
  <path class="fil2" d="M361 1776l68 6c10,1 18,-10 13,-19l-29 -62c-4,-9 -17,-11 -23,-2l-39 55c-6,8 -1,20 10,21z"/>
  <path class="fil2" d="M1886 575l35 -58c5,-9 -1,-20 -11,-20l-68 -1c-10,0 -17,11 -12,20l33 59c5,9 18,9 23,0z"/>
  <path class="fil2" d="M2640 3691l67 -12c10,-2 15,-14 8,-22l-44 -52c-7,-8 -19,-6 -23,4l-23 64c-3,10 5,20 15,18z"/>
  <path class="fil2" d="M224 2404l50 -45c8,-7 5,-20 -5,-23l-65 -21c-10,-3 -19,5 -17,16l14 66c2,10 14,14 22,7z"/>
  <path class="fil2" d="M1150 2192l37 -57c6,-9 0,-20 -11,-21l-68 -4c-10,-1 -17,10 -13,20l31 60c5,9 18,10 23,1z"/>
  <path class="fil2" d="M3708 2738l63 -24c10,-4 12,-16 4,-23l-52 -43c-8,-7 -20,-2 -22,8l-11 67c-2,10 8,18 18,15z"/>
  <path class="fil2" d="M2785 607l64 23c10,3 20,-5 18,-15l-12 -67c-2,-10 -14,-15 -22,-8l-52 44c-8,7 -6,19 4,23z"/>
  <path class="fil3" d="M585 240l-4 68c-1,10 10,17 19,13l61 -30c9,-5 10,-18 1,-23l-57 -37c-9,-6 -20,0 -21,10z"/>
  <path class="fil3" d="M304 1165l5 -68c1,-10 -10,-18 -19,-13l-61 30c-9,5 -10,17 -2,23l56 38c9,6 20,0 21,-10z"/>
  <path class="fil3" d="M1713 198l13 -67c2,-10 -8,-19 -18,-15l-64 22c-10,3 -12,16 -5,23l51 45c8,7 20,3 22,-8z"/>
  <path class="fil3" d="M3540 2175l34 58c5,9 18,9 23,0l33 -59c5,-9 -1,-20 -12,-20l-68 1c-10,0 -17,11 -11,20z"/>
  <path class="fil3" d="M3609 3199l49 47c7,7 20,4 22,-6l16 -66c2,-10 -7,-19 -17,-16l-65 19c-10,3 -13,15 -6,23z"/>
  <path class="fil3" d="M693 2326l-60 31c-9,5 -10,18 -1,23l57 36c9,6 20,0 21,-11l3 -68c0,-10 -10,-17 -20,-13z"/>
  <path class="fil3" d="M862 3224l-15 66c-2,10 7,19 17,16l65 -20c10,-3 13,-16 5,-23l-50 -46c-8,-7 -20,-3 -22,7z"/>
  <path class="fil3" d="M3479 1632l44 51c7,8 19,5 23,-4l22 -64c3,-10 -5,-20 -15,-18l-67 13c-10,2 -14,14 -8,22z"/>
  <path class="fil3" d="M1153 3802l-10 -67c-2,-10 -14,-15 -22,-8l-53 42c-8,6 -6,19 4,23l63 25c10,4 20,-4 18,-15z"/>
  <path class="fil3" d="M335 3020l31 -60c5,-9 -2,-20 -12,-20l-68 3c-10,0 -16,12 -11,21l36 57c6,9 18,8 23,-1z"/>
  <path class="fil3" d="M1219 906l-68 -3c-10,0 -17,10 -13,20l31 60c5,9 18,10 23,1l36 -57c6,-9 0,-20 -11,-21z"/>
  <path class="fil3" d="M2153 3550l54 -42c8,-6 6,-19 -3,-23l-63 -26c-10,-4 -20,4 -18,14l9 67c1,10 13,15 22,9z"/>
  <path class="fil3" d="M2066 2873l-15 66c-2,10 7,19 17,16l65 -20c10,-3 13,-16 5,-23l-50 -46c-8,-7 -20,-3 -22,7z"/>
  <path class="fil3" d="M3206 976l-57 -36c-9,-6 -20,0 -21,11l-3 68c0,10 10,17 20,12l60 -31c9,-5 10,-18 1,-23z"/>
  <path class="fil3" d="M3702 428l-23 -64c-4,-10 -16,-12 -23,-4l-44 52c-7,8 -2,20 8,22l67 12c10,2 19,-8 15,-18z"/>
 </g>
</svg>
